<svg xmlns="http://www.w3.org/2000/svg" width="128.3" height="122.724" viewBox="0 0 128.3 122.724">
  <g id="icone-sol" transform="translate(-5.984)">
    <path id="Caminho_942" data-name="Caminho 942" d="M81.436,50.233H77.854a10.062,10.062,0,1,1,.083-.05h7.149a96.837,96.837,0,1,1-.083.05Z" transform="translate(18.209 11.12)" fill="#fff"/>
    <path id="Caminho_943" data-name="Caminho 943" d="M123.315,64.638l-2.642-2.427-9.807,10.666a8.5,8.5,0,0,0-2.212,5.7v.974l1.651,14.38v.182A1.238,1.238,0,0,1,109.3,95.33L95.1,98.2a8.437,8.437,0,0,0-5.613,4.161l-7.1,12.63-1.106.644-.512-.116L67.56,109.48a8.453,8.453,0,0,0-7,0l-13.208,6.043-.528.116-1.09-.644-7.066-12.63a8.4,8.4,0,0,0-5.647-4.177L18.8,95.314A1.255,1.255,0,0,1,17.8,94.092v-.149l1.651-14.4v-.974a8.437,8.437,0,0,0-2.229-5.7L7.479,62.211l-.33-.859.33-.842,9.807-10.666a8.437,8.437,0,0,0,2.229-5.7v-.958L17.864,28.777v-.149a1.255,1.255,0,0,1,1.007-1.222L33.02,24.534a8.42,8.42,0,0,0,5.663-4.128L45.8,7.793l1.09-.644.528.116,13.208,6.026a8.371,8.371,0,0,0,3.5.776,8.569,8.569,0,0,0,3.5-.759L80.834,7.265l.512-.116,1.106.66,7.1,12.6a8.4,8.4,0,0,0,5.68,4.128l14.2,2.873a1.238,1.238,0,0,1,1.007,1.222v.165l-1.651,14.38v.974a8.5,8.5,0,0,0,2.212,5.7l9.807,10.666.33.842-.33.859,2.642,2.427,2.625,2.41a8.371,8.371,0,0,0,0-11.376l-9.791-10.682-.347-.842V44l1.651-14.4v-.974a8.421,8.421,0,0,0-6.754-8.255L96.634,17.5l-.875-.594L88.61,4.293A8.42,8.42,0,0,0,77.779.76L64.571,6.8l-.528.1-.512-.1L50.323.76a8.42,8.42,0,0,0-10.7,3.533L32.508,16.907l-.842.611-14.2,2.873a8.4,8.4,0,0,0-6.753,8.255v.974l1.651,14.4v.149l-.33.842L2.212,55.673a8.42,8.42,0,0,0,0,11.376L12.019,77.73l.33.842v.149L10.7,93.118v.974a8.4,8.4,0,0,0,6.753,8.255l14.2,2.873.842.611,7.132,12.614a8.42,8.42,0,0,0,10.831,3.517l13.208-6.043.512-.1.528.116,13.208,6.026a8.42,8.42,0,0,0,10.831-3.517l7.017-12.63.842-.611,14.182-2.84a8.42,8.42,0,0,0,6.753-8.255v-.974l-1.651-14.4v-.149l.347-.842,9.791-10.682Z" transform="translate(5.984 0)" fill="#fff"/>
  </g>
</svg>
