<svg id="Componente_9_1" data-name="Componente 9 – 1" xmlns="http://www.w3.org/2000/svg" width="132.389" height="125.828" viewBox="0 0 132.389 125.828">
  <path id="Caminho_861" data-name="Caminho 861" d="M105.036,31.22l3.842.154V29.9C108.871,16.411,98.2,4.667,83.029,1.447S52.1,4.361,44.846,16.31l3.415,1.536,2.17-2.856a25.258,25.258,0,0,0-22.7-.784c-7.161,3.35-11.624,9.815-11.63,16.846a10.946,10.946,0,0,0,.107,1.873l3.842-.322-1.423-3.071C5.573,33.982-1.981,45.809.625,57.716S15.264,78.254,29.3,78.285h73.727c15.8.109,28.843-10.638,29.453-24.268S121.048,28.8,105.285,27.857l-.249,3.363,3.842.154-3.842-.154-.3,3.317c11.607.7,20.469,9.235,20.017,19.272S114.7,71.759,103.062,71.682H29.353C18.917,71.772,9.9,65.4,7.958,56.543s3.731-17.637,13.48-20.855a3.292,3.292,0,0,0,2.419-3.424V31.051c-.013-4.6,2.9-8.83,7.579-11.02a16.459,16.459,0,0,1,14.833.533,4.347,4.347,0,0,0,3.017.394,3.776,3.776,0,0,0,2.39-1.637c5.6-9.24,17.782-13.986,29.511-11.5s19.975,11.572,19.972,22h3.878l-3.806-.138v1.321a3.545,3.545,0,0,0,3.557,3.486Z" transform="translate(-0.113 -0.597)" fill="#fff"/>
  <path id="Caminho_862" data-name="Caminho 862" d="M533.164,191.989h11.384a3.368,3.368,0,1,0,0-6.664H533.164a3.368,3.368,0,1,0,0,6.664" transform="translate(-439.304 -158.202)" fill="#fff"/>
  <path id="Caminho_863" data-name="Caminho 863" d="M204.535,84c8.008.017,14.495,5.617,14.514,12.53A3.23,3.23,0,0,0,220.9,99.6a4.388,4.388,0,0,0,4.01,0,3.23,3.23,0,0,0,1.846-3.073c0-10.592-9.946-19.179-22.216-19.179a4.061,4.061,0,0,0-3.56,1.594,2.948,2.948,0,0,0,0,3.462A4.061,4.061,0,0,0,204.535,84" transform="translate(-166.348 -66.073)" fill="#fff"/>
  <path id="Caminho_864" data-name="Caminho 864" d="M528.268,583.856h0a8.274,8.274,0,0,1-6.093-2.562,6.017,6.017,0,0,1-1.449-5.715l5.959-21.221a1.686,1.686,0,0,1,3.166,0l5.959,21.221a6,6,0,0,1-1.44,5.721,8.258,8.258,0,0,1-6.1,2.556" transform="translate(-432.007 -472.109)" fill="#fff"/>
  <path id="Caminho_865" data-name="Caminho 865" d="M350.787,680.057h0a8.274,8.274,0,0,1-6.093-2.562,6.017,6.017,0,0,1-1.449-5.715l5.959-21.221a1.715,1.715,0,0,1,3.166,0l5.976,21.221a6.018,6.018,0,0,1-1.454,5.721,8.279,8.279,0,0,1-6.1,2.556" transform="translate(-284.71 -554.229)" fill="#fff"/>
  <path id="Caminho_866" data-name="Caminho 866" d="M159.5,583.856h0a8.274,8.274,0,0,1-6.093-2.562,6.017,6.017,0,0,1-1.449-5.715l5.994-21.221a1.686,1.686,0,0,1,3.166,0l5.976,21.221a6.018,6.018,0,0,1-1.454,5.721,8.279,8.279,0,0,1-6.1,2.556" transform="translate(-125.957 -472.109)" fill="#fff"/>
</svg>
