<svg xmlns="http://www.w3.org/2000/svg" width="90" height="90" viewBox="0 0 90 90">
  <g id="indice-uv" transform="translate(3.922 11.955)">
    <rect id="Retângulo_156" data-name="Retângulo 156" width="90" height="90" transform="translate(-3.922 -11.955)" fill="none"/>
    <path id="Caminho_938" data-name="Caminho 938" d="M46.685,28.83h.126A1.558,1.558,0,0,1,48.378,30.4v7.672a3.449,3.449,0,0,0,.486,2,2.075,2.075,0,0,0,3.08,0,3.377,3.377,0,0,0,.5-2V30.4a1.567,1.567,0,0,1,1.576-1.567h0A1.567,1.567,0,0,1,55.591,30.4v7.339a6.556,6.556,0,0,1-1.279,4.341,4.881,4.881,0,0,1-3.9,1.5,5.007,5.007,0,0,1-3.98-1.5,6.412,6.412,0,0,1-1.315-4.341V30.4a1.567,1.567,0,0,1,1.576-1.567" transform="translate(4.103 -2.282)" fill="#1c5b62"/>
    <path id="Caminho_939" data-name="Caminho 939" d="M60.877,28.83h.135a1.558,1.558,0,0,1,1.522,1.18l1.432,5.574c.225.792.414,1.567.585,2.314s.36,1.522.567,2.323h.09c.225-.8.414-1.576.594-2.323s.369-1.522.576-2.314l1.414-5.574a1.57,1.57,0,1,1,3.026.837L67.405,42.194a1.576,1.576,0,0,1-1.5,1.117H64.308a1.567,1.567,0,0,1-1.5-1.117L59.373,30.847a1.567,1.567,0,0,1,1.5-2.017" transform="translate(2.69 -2.282)" fill="#1c5b62"/>
    <path id="Caminho_940" data-name="Caminho 940" d="M45.762,19.986a17.92,17.92,0,1,0,0,29.069,1.954,1.954,0,0,0-2.287-3.17,13.823,13.823,0,0,1-8.1,2.7,14.021,14.021,0,1,1,0-28.042,13.823,13.823,0,0,1,8.1,2.657,1.954,1.954,0,0,0,2.287-3.17" transform="translate(6.863 -1.066)" fill="#1c5b62"/>
    <path id="Caminho_941" data-name="Caminho 941" d="M61.749,19.163l.387-3.467v-.513a4.5,4.5,0,0,0-3.6-4.377L51.06,9.257l-.405-.252L46.9,2.341A4.5,4.5,0,0,0,41.091.414L34.139,3.6l-.243.054L33.635,3.6,26.683.414A4.395,4.395,0,0,0,24.809,0a4.5,4.5,0,0,0-3.917,2.3L17.11,9.005l-.405.3-7.474,1.5a4.5,4.5,0,0,0-3.6,4.413v.531h0l.9,7.6v.063l-.162.414L1.189,29.411a4.5,4.5,0,0,0,0,6.1l5.178,5.628.162.414v.072h0l-.9,7.6v.522a4.5,4.5,0,0,0,3.6,4.413l7.491,1.513.405.3,3.764,6.664a4.5,4.5,0,0,0,3.917,2.287,4.557,4.557,0,0,0,1.873-.405l6.961-3.188.252-.054.243.054L41.1,64.514a4.62,4.62,0,0,0,1.873.405A4.5,4.5,0,0,0,46.9,62.632l3.755-6.664.405-.3,7.474-1.522a4.5,4.5,0,0,0,3.6-4.422v-.513l-.4-3.467a1.954,1.954,0,1,0-3.881.45l.405,3.467v.063a.6.6,0,0,1-.486.594l-7.5,1.513a4.5,4.5,0,0,0-3.017,2.2L43.5,60.7,42.973,61l-.252-.054L35.769,57.76a4.5,4.5,0,0,0-3.746,0l-6.961,3.188L24.809,61l-.5-.3-3.782-6.673A4.5,4.5,0,0,0,17.5,51.825L10,50.312a.6.6,0,0,1-.486-.585v-.072l.9-7.6h0v-.5A4.5,4.5,0,0,0,9.23,38.5L4.061,32.86,3.9,32.419l.162-.405,5.178-5.628a4.5,4.5,0,0,0,1.189-3.062v-.5l-.9-7.6h0v-.072A.585.585,0,0,1,10,14.57l7.5-1.522a4.5,4.5,0,0,0,3.035-2.2l3.773-6.637.522-.306.252.054L32.05,7.141a4.5,4.5,0,0,0,3.746,0l6.925-3.179.252-.054.522.3,3.764,6.673a4.5,4.5,0,0,0,3.026,2.2l7.5,1.513a.6.6,0,0,1,.486.594v.072l-.4,3.467a1.954,1.954,0,0,0,3.881.441" transform="translate(8.59 0.585)" fill="#1c5b62"/>
  </g>
</svg>
