<svg xmlns="http://www.w3.org/2000/svg" width="90" height="90" viewBox="0 0 90 90">
  <g id="luminosidade" transform="translate(3.922 11.786)">
    <rect id="Retângulo_152" data-name="Retângulo 152" width="90" height="90" transform="translate(-3.922 -11.786)" fill="none"/>
    <path id="Caminho_942" data-name="Caminho 942" d="M52.955,35.163H51a5.488,5.488,0,1,1,.045-.027h3.9a52.822,52.822,0,1,1-.045.027Z" transform="translate(4.115 -1.699)" fill="#1c5b62"/>
    <path id="Caminho_943" data-name="Caminho 943" d="M67.26,35.256l-1.441-1.324L60.47,39.749a4.638,4.638,0,0,0-1.207,3.107v.531l.9,7.844v.1a.675.675,0,0,1-.549.666L51.87,53.563a4.6,4.6,0,0,0-3.062,2.269l-3.872,6.889-.6.351-.279-.063-7.2-3.3a4.611,4.611,0,0,0-3.818,0l-7.2,3.3-.288.063-.594-.351L21.09,55.833a4.584,4.584,0,0,0-3.08-2.278l-7.754-1.567a.684.684,0,0,1-.549-.666V51.24l.9-7.853v-.531a4.6,4.6,0,0,0-1.216-3.107L4.079,33.932l-.18-.468L4.079,33l5.349-5.817a4.6,4.6,0,0,0,1.216-3.107v-.522l-.9-7.862v-.081a.684.684,0,0,1,.549-.666l7.718-1.567A4.593,4.593,0,0,0,21.1,11.13l3.881-6.88.594-.351.288.063,7.2,3.287a4.566,4.566,0,0,0,1.909.423,4.674,4.674,0,0,0,1.909-.414l7.2-3.3.279-.063.6.36,3.872,6.871a4.584,4.584,0,0,0,3.1,2.251l7.745,1.567a.675.675,0,0,1,.549.666v.09l-.9,7.844v.531a4.638,4.638,0,0,0,1.207,3.107L65.891,33l.18.459-.18.468,1.441,1.324,1.432,1.315a4.566,4.566,0,0,0,0-6.2l-5.34-5.826-.189-.459V24l.9-7.853v-.531a4.593,4.593,0,0,0-3.684-4.5L52.708,9.546l-.477-.324-3.9-6.88A4.593,4.593,0,0,0,42.424.414l-7.2,3.3-.288.054-.279-.054-7.2-3.3a4.593,4.593,0,0,0-5.835,1.927l-3.881,6.88-.459.333L9.528,11.121a4.584,4.584,0,0,0-3.683,4.5v.531l.9,7.853v.081l-.18.459L1.207,30.366a4.593,4.593,0,0,0,0,6.2L6.556,42.4l.18.459v.081l-.9,7.853v.531a4.584,4.584,0,0,0,3.683,4.5l7.745,1.567.459.333,3.89,6.88a4.593,4.593,0,0,0,5.907,1.918l7.2-3.3L35,63.172l.288.063,7.2,3.287A4.593,4.593,0,0,0,48.4,64.6l3.827-6.889.459-.333,7.736-1.549a4.593,4.593,0,0,0,3.683-4.5V50.8l-.9-7.853v-.081l.189-.459,5.34-5.826Z" transform="translate(5.984 0)" fill="#1c5b62"/>
  </g>
</svg>
