<svg xmlns="http://www.w3.org/2000/svg" width="90" height="90" viewBox="0 0 90 90">
  <g id="temperatura" transform="translate(6.948 8.697)">
    <rect id="Retângulo_157" data-name="Retângulo 157" width="90" height="90" transform="translate(-6.948 -8.697)" fill="none"/>
    <path id="Caminho_906" data-name="Caminho 906" d="M36.385,44.293h1.954V9A9.041,9.041,0,1,0,20.257,9V44.293h1.954l-1.2-1.54a13.508,13.508,0,1,0,16.57,0l-1.2,1.531h0l-1.2,1.549a9.618,9.618,0,1,1-11.779,0,1.99,1.99,0,0,0,.756-1.549V9A5.133,5.133,0,0,1,34.431,9V44.293a1.936,1.936,0,0,0,.756,1.54Z" transform="translate(15.907 2.858)" fill="#1c5b62"/>
    <path id="Caminho_907" data-name="Caminho 907" d="M1.944,14.049H12.8a1.954,1.954,0,0,0,0-3.9H1.989a1.954,1.954,0,1,0,0,3.9" transform="translate(17.487 1.845)" fill="#1c5b62"/>
    <path id="Caminho_908" data-name="Caminho 908" d="M8.384,22.348h5.061a1.954,1.954,0,0,0,0-3.908H8.384a1.954,1.954,0,0,0,0,3.908" transform="translate(16.838 1.02)" fill="#1c5b62"/>
    <path id="Caminho_909" data-name="Caminho 909" d="M8.369,30.639H13.43a1.954,1.954,0,0,0,0-3.9H8.369a1.954,1.954,0,1,0,0,3.9" transform="translate(16.853 0.195)" fill="#1c5b62"/>
    <path id="Caminho_910" data-name="Caminho 910" d="M1.944,38.929H12.8a1.954,1.954,0,0,0,0-3.9H1.989a1.954,1.954,0,1,0,0,3.9" transform="translate(17.487 -0.63)" fill="#1c5b62"/>
    <path id="Caminho_911" data-name="Caminho 911" d="M28.62,12.089V54.333a1.954,1.954,0,1,0,3.9,0V12.089a1.954,1.954,0,1,0-3.9,0" transform="translate(14.631 1.859)" fill="#1c5b62"/>
    <path id="Caminho_912" data-name="Caminho 912" d="M34.09,58.79a3.71,3.71,0,1,1-3.71-3.71,3.71,3.71,0,0,1,3.71,3.71" transform="translate(14.825 -2.625)" fill="#1c5b62"/>
  </g>
</svg>
