<svg xmlns="http://www.w3.org/2000/svg" width="90" height="90" viewBox="0 0 90 90">
  <g id="velocidade-e-rajadas-vento" transform="translate(3.974 8.697)">
    <rect id="Retângulo_158" data-name="Retângulo 158" width="90" height="90" transform="translate(-3.974 -8.697)" fill="none"/>
    <path id="Caminho_904" data-name="Caminho 904" d="M38.776,67.062l1.747-1.18L27.24,46.35a2.062,2.062,0,0,0-1.459-.9L7.14,43,50.113,7.6,36.732,66.639l2.044.468,1.747-1.225-1.738,1.18,2.044.468L55.553,2.558A2.1,2.1,0,0,0,52.176.478L.765,42.829A2.089,2.089,0,0,0,1.8,46.521l22.513,2.954L37.047,68.242a2.08,2.08,0,0,0,2.116.9,2.107,2.107,0,0,0,1.657-1.6Z" transform="translate(13.228 1.712)" fill="#1c5b62"/>
    <path id="Caminho_905" data-name="Caminho 905" d="M2.33,44.673l23.414,3.08,28-45.422Z" transform="translate(12.996 1.481)" fill="#1c5b62"/>
  </g>
</svg>
