<svg xmlns="http://www.w3.org/2000/svg" width="90" height="90" viewBox="0 0 90 90">
  <g id="velocidade-e-direcao-do-vento" transform="translate(-6.026 16.189)">
    <rect id="Retângulo_154" data-name="Retângulo 154" width="90" height="90" transform="translate(6.026 -16.189)" fill="none"/>
    <path id="Caminho_923" data-name="Caminho 923" d="M49.149,20.052a9.194,9.194,0,1,1,9.194,9.185,1.954,1.954,0,1,0,0,3.908,13.1,13.1,0,1,0-13.094-13.1,1.954,1.954,0,0,0,3.9,0" transform="translate(13.114 -1.669)" fill="#1c5b62"/>
    <path id="Caminho_924" data-name="Caminho 924" d="M53.842,31.7H1.954a1.954,1.954,0,0,0,0,3.908H53.842a1.954,1.954,0,1,0,0-3.908" transform="translate(17.615 -4.132)" fill="#1c5b62"/>
    <path id="Caminho_925" data-name="Caminho 925" d="M21.568,10.293a6.394,6.394,0,1,1,6.385,6.394,1.954,1.954,0,0,0,0,3.9A10.293,10.293,0,1,0,17.66,10.293a1.954,1.954,0,1,0,3.908,0" transform="translate(15.858 -0.979)" fill="#1c5b62"/>
    <path id="Caminho_926" data-name="Caminho 926" d="M26.182,18.53H1.939a1.954,1.954,0,1,0,0,3.9H26.182a1.954,1.954,0,1,0,0-3.9" transform="translate(17.63 -2.822)" fill="#1c5b62"/>
    <path id="Caminho_927" data-name="Caminho 927" d="M45,53.593A10.293,10.293,0,1,0,55.253,43.3a1.954,1.954,0,0,0,0,3.9,6.394,6.394,0,1,1-6.385,6.394,1.954,1.954,0,1,0-3.9,0" transform="translate(13.142 -5.286)" fill="#1c5b62"/>
    <path id="Caminho_928" data-name="Caminho 928" d="M50.766,43.3H1.939a1.954,1.954,0,1,0,0,3.9H50.766a1.954,1.954,0,1,0,0-3.9" transform="translate(17.63 -5.286)" fill="#1c5b62"/>
  </g>
</svg>
