<svg id="Grupo_1657" data-name="Grupo 1657" xmlns="http://www.w3.org/2000/svg" width="90" height="90" viewBox="0 0 90 90">
  <rect id="Retângulo_152" data-name="Retângulo 152" width="90" height="90" fill="none"/>
  <g id="REF_ICONE_01-01" transform="translate(4.282 8.104)">
    <path id="Caminho_898" data-name="Caminho 898" d="M53.132,18.016l1.945.09v-.865a17.191,17.191,0,0,0-32.419-7.97l1.729.9,1.1-1.675a11.248,11.248,0,0,0-17.38,9.419,7.423,7.423,0,0,0,.054,1.1l1.945-.189-.72-1.8a14.814,14.814,0,0,0,5.4,28.592H52.114a14.8,14.8,0,0,0,1.144-29.573l-.126,1.972,1.945.09-1.945-.09-.153,1.945a10.905,10.905,0,0,1-.846,21.784H14.815a10.914,10.914,0,0,1-4.007-21.108,1.936,1.936,0,0,0,1.225-2.008v-.711a7.33,7.33,0,0,1,11.347-6.151,1.936,1.936,0,0,0,2.738-.729A13.283,13.283,0,0,1,51.169,17.2h1.963L51.2,17.116v.774a1.954,1.954,0,0,0,1.8,2.044Z" transform="translate(7.193 -0.057)" fill="#10444f"/>
    <path id="Caminho_899" data-name="Caminho 899" d="M52.564,21.628h5.763a1.954,1.954,0,0,0,0-3.908H52.564a1.954,1.954,0,1,0,0,3.908" transform="translate(2.16 -1.814)" fill="#10444f"/>
    <path id="Caminho_900" data-name="Caminho 900" d="M21.249,11.3A7.366,7.366,0,0,1,28.6,18.647a1.954,1.954,0,1,0,3.9,0A11.248,11.248,0,0,0,21.249,7.4a1.954,1.954,0,1,0,0,3.9" transform="translate(5.288 -0.787)" fill="#10444f"/>
    <path id="Caminho_901" data-name="Caminho 901" d="M53.7,70.847h0a3.935,3.935,0,0,1-3.818-4.854l3.017-12.445a.819.819,0,0,1,1.6,0l3.017,12.445A3.926,3.926,0,0,1,53.7,70.847" transform="translate(2.244 -5.314)" fill="#10444f"/>
    <path id="Caminho_902" data-name="Caminho 902" d="M36.726,80.021h0a3.935,3.935,0,0,1-3.818-4.854l3.017-12.445a.828.828,0,0,1,1.6,0l3.026,12.445a3.935,3.935,0,0,1-3.827,4.854" transform="translate(3.932 -6.229)" fill="#10444f"/>
    <path id="Caminho_903" data-name="Caminho 903" d="M18.436,70.847h0a3.935,3.935,0,0,1-3.818-4.854l3.035-12.445a.819.819,0,0,1,1.6,0l3.026,12.445a3.935,3.935,0,0,1-3.827,4.854" transform="translate(5.751 -5.314)" fill="#10444f"/>
  </g>
</svg>
